Coordinates
version=1
nRows=14
nColumns=40
inDegrees=yes

Units are S.I. units (second, meters, Newtons, ...)
Angles are in degrees.

endheader
time	pelvis_tilt	pelvis_list	pelvis_rotation	pelvis_tx	pelvis_ty	pelvis_tz	hip_flexion_r	hip_adduction_r	hip_rotation_r	knee_angle_r	knee_angle_r_beta	ankle_angle_r	subtalar_angle_r	mtp_angle_r	hip_flexion_l	hip_adduction_l	hip_rotation_l	knee_angle_l	knee_angle_l_beta	ankle_angle_l	subtalar_angle_l	mtp_angle_l	lumbar_extension	lumbar_bending	lumbar_rotation	arm_flex_r	arm_add_r	arm_rot_r	elbow_flex_r	pro_sup_r	wrist_flex_r	wrist_dev_r	arm_flex_l	arm_add_l	arm_rot_l	elbow_flex_l	pro_sup_l	wrist_flex_l	wrist_dev_l
     33.89500000	     -3.03380621	     -5.94332618	     -0.29966358	      0.96701467	      0.92698339	      0.48246672	     17.35873991	      4.01402016	    -16.04555289	     17.61032795	     17.61032795	      6.62190342	      2.64097539	     -4.77624884	     11.36749299	    -11.52508692	     -5.40331320	     49.28509091	     49.28509091	     11.37055420	    -16.64991124	     -3.45276500	     -8.06335386	      8.83983178	      2.58836000	      1.23303138	    -11.73512869	     -7.31840051	     25.75733192	     46.76693559	      0.00000000	      0.00000000	     18.74884009	    -11.64775742	     -4.92525553	     56.57190589	     46.81546192	      0.00000000	      0.00000000
     33.90714286	     -2.87451273	     -6.13084639	      0.17277644	      0.96690255	      0.92762189	      0.48363788	     16.51471311	      4.17538601	    -16.82562955	     17.35844524	     17.35844524	      7.10350097	      3.43619332	     -5.03663132	     13.54183293	    -12.05129395	     -4.59533706	     53.15261543	     53.15261543	     11.86822246	    -16.76007337	      1.67934101	     -8.12324543	      9.08330290	      3.10732596	      2.58654123	    -12.07849286	     -6.89579645	     26.39975088	     46.69952819	      0.00000000	      0.00000000	     18.42604875	    -10.76960255	     -3.92511212	     53.85091480	     46.70563472	      0.00000000	      0.00000000
     33.91928571	     -2.72010999	     -6.33767291	      0.62380871	      0.96672429	      0.92823369	      0.48481997	     15.60887136	      4.43879314	    -17.42078203	     16.93774643	     16.93774643	      7.48801264	      3.96933779	     -5.16945324	     15.52200496	    -12.64594094	     -4.02968126	     56.21374807	     56.21374807	     11.11671121	    -17.38660708	      3.14186794	     -8.18951423	      9.32635299	      2.93469124	      4.41046180	    -12.24981647	     -6.85616525	     27.32627756	     46.66663598	      0.00000000	      0.00000000	     17.23095218	    -10.38883085	     -3.40371471	     52.29259631	     46.63370303	      0.00000000	      0.00000000
     33.93142857	     -2.50990583	     -6.58039447	      1.01517809	      0.96643914	      0.92876856	      0.48598086	     14.75216017	      4.76148885	    -17.81394214	     16.69874184	     16.69874184	      7.85402942	      4.23753830	     -5.27634722	     17.38354395	    -13.28689899	     -3.57767901	     58.78904875	     58.78904875	     10.37847463	    -17.95516275	      3.79812332	     -8.34199851	      9.59254285	      3.29654979	      6.09081632	    -12.61502565	     -6.85553134	     28.01465839	     46.65050297	      0.00000000	      0.00000000	     16.12478881	     -9.65357633	     -3.00037720	     51.32208079	     46.57501765	      0.00000000	      0.00000000
     33.94357143	     -2.43111896	     -6.73213514	      1.43163066	      0.96603166	      0.92922533	      0.48706975	     13.93369265	      5.01629759	    -18.27185098	     16.23346990	     16.23346990	      8.19060404	      4.64905957	     -5.36790752	     19.35130564	    -13.78222798	     -3.16136516	     60.85937637	     60.85937637	     10.12529620	    -18.29338610	      4.88957031	     -8.36574559	      9.72704688	      3.30303095	      7.83328262	    -12.83156555	     -6.83821044	     28.78228112	     46.62902084	      0.00000000	      0.00000000	     14.93378660	     -9.22830076	     -2.51983307	     49.71073183	     46.50203638	      0.00000000	      0.00000000
     33.95571429	     -2.33051171	     -6.65793988	      1.77850464	      0.96549609	      0.92987790	      0.48793093	     13.10877990	      5.00052326	    -18.77980204	     15.81637757	     15.81637757	      8.47253565	      5.30752383	     -5.74050360	     21.32257206	    -13.83560728	     -2.68640848	     62.63896380	     62.63896380	     11.85506126	    -18.13237197	     10.91715912	     -8.34353835	      9.63245192	      3.87195413	      9.44583964	    -13.21550179	     -6.43742965	     29.33599858	     46.56921613	      0.00000000	      0.00000000	     15.06067005	     -8.55857533	     -0.96234794	     45.03475701	     46.31046800	      0.00000000	      0.00000000
     33.96785714	     -2.24715786	     -6.69742190	      2.10559123	      0.96485652	      0.93043714	      0.48896673	     12.31676400	      5.20438348	    -18.89636177	     15.35427373	     15.35427373	      8.76068043	      5.34556279	     -5.74487448	     23.05522485	    -14.12991032	     -2.44219606	     63.47768324	     63.47768324	     11.73762996	    -18.34450255	     11.18026091	     -8.40692919	      9.62108671	      3.92930738	     11.28469672	    -13.42346473	     -6.51147762	     30.31883502	     46.54458279	      0.00000000	      0.00000000	     13.67959941	     -8.19455123	     -0.58780154	     43.86860841	     46.24694476	      0.00000000	      0.00000000
     33.98000000	     -2.16140835	     -6.63584906	      2.39132050	      0.96418595	      0.93109105	      0.48994578	     11.49994602	      5.32617173	    -18.91829016	     14.83999280	     14.83999280	      8.97675117	      5.33073296	     -5.76547518	     24.63501744	    -14.22693509	     -2.24194643	     63.69046738	     63.69046738	     11.82132368	    -18.46280637	     11.63152825	     -8.48636541	      9.47072423	      3.92960908	     13.22694739	    -13.56207418	     -6.54718307	     31.31831769	     46.51584849	      0.00000000	      0.00000000	     12.39648397	     -7.90176679	     -0.12647737	     42.17279342	     46.17071063	      0.00000000	      0.00000000
     33.99214286	     -2.08638072	     -6.49778562	      2.65572185	      0.96338390	      0.93175295	      0.49082509	     10.70433959	      5.37889232	    -18.82415140	     14.32243656	     14.32243656	      9.15153414	      5.16116330	     -5.85534219	     26.09306420	    -14.16670201	     -2.08788965	     63.32115248	     63.32115248	     12.04525061	    -18.50099874	     12.16626494	     -8.57358093	      9.23882839	      4.05068770	     15.12403537	    -13.75395399	     -6.54788252	     32.29169501	     46.48290069	      0.00000000	      0.00000000	     11.30492529	     -7.55785889	      0.41172365	     40.07086826	     46.08425760	      0.00000000	      0.00000000
     34.00428571	     -2.04159819	     -6.33881257	      2.93361192	      0.96248746	      0.93236771	      0.49160226	      9.94634433	      5.41363746	    -18.68037181	     13.79553909	     13.79553909	      9.31400214	      4.88959865	     -5.96809026	     27.44092034	    -13.99434313	     -1.91106890	     62.35477148	     62.35477148	     12.19659223	    -18.51111025	     12.53616511	     -8.63363937	      8.96022530	      4.18061206	     16.98104990	    -13.95131376	     -6.56108667	     33.34738459	     46.44705684	      0.00000000	      0.00000000	     10.18184290	     -7.25341109	      0.87063776	     38.07186728	     46.00570680	      0.00000000	      0.00000000
     34.01642857	     -2.10045243	     -6.15139731	      3.13768084	      0.96148328	      0.93272445	      0.49230504	      9.44524613	      5.34561139	    -18.60536968	     13.56286941	     13.56286941	      9.58642017	      4.73478114	     -6.02928172	     28.71736092	    -13.76451311	     -1.84209506	     60.84310764	     60.84310764	     12.36458446	    -18.35640975	     12.62345506	     -8.64360712	      8.61500856	      4.82619261	     18.63808488	    -14.52245765	     -6.64444778	     34.07789670	     46.43452770	      0.00000000	      0.00000000	      8.88808565	     -6.78729754	      1.04660736	     37.30069552	     45.96355839	      0.00000000	      0.00000000
     34.02857143	     -2.02342343	     -5.92254064	      3.47450470	      0.96054819	      0.93337488	      0.49280203	      8.52732967	      5.36635328	    -18.32851048	     12.77189041	     12.77189041	      9.63678485	      4.23117128	     -6.08212825	     29.66551409	    -13.29477147	     -1.56991813	     58.73464101	     58.73464101	     12.36508620	    -18.44338108	     12.86978295	     -8.74820318	      8.25593296	      4.26909894	     20.76280813	    -14.29007030	     -6.63705246	     35.69099280	     46.37687108	      0.00000000	      0.00000000	      7.58576670	     -6.81296599	      1.43664337	     34.89099921	     45.88856075	      0.00000000	      0.00000000
     34.04071429	     -2.05244060	     -5.76533341	      3.74864071	      0.95946914	      0.93365208	      0.49324514	      7.81517254	      5.45176826	    -17.86846909	     12.09155380	     12.09155380	      9.38628974	      3.31189863	     -6.98804740	     30.58050906	    -12.90860721	     -1.37666810	     56.20654216	     56.20654216	     12.28315353	    -18.32242006	     12.68411837	     -8.76040475	      7.97648460	      4.88600062	     21.93244325	    -14.97431701	     -6.34655122	     37.88558711	     46.25100825	      0.00000000	      0.00000000	      7.42468746	     -6.27367864	      2.03399832	     30.97616193	     45.79662256	      0.00000000	      0.00000000
     34.05285714	     -2.13450157	     -5.53737183	      4.01073087	      0.95831908	      0.93373400	      0.49343581	      7.28661359	      5.33705577	    -17.79243912	     11.74436573	     11.74436573	      9.64699557	      3.07638734	     -7.02772060	     31.37808496	    -12.36389811	     -1.18916171	     53.29778831	     53.29778831	     12.31125283	    -18.14601707	     12.94119325	     -8.77063781	      7.59172532	      5.05503326	     23.78353402	    -15.34744785	     -6.45776147	     39.02869174	     46.22234235	      0.00000000	      0.00000000	      5.96777439	     -6.10890137	      2.12981176	     30.13271092	     45.75811478	      0.00000000	      0.00000000
